PathFileType	4	(X/Y/Z)	W12_1_OpenSim.trc																																																																																																				
DataRate	CameraRate	NumFrames	NumMarkers	Units	OrigDataRate	OrigDataStartFrame	OrigNumFrames																																																																																																
100	100	7	34	mm	100	2222	2962																																																																																																
Frame#	Time	R.ASIS			R.PSIS			S2			L.PSIS			L.ASIS			R.TH1			R.TH2			R.TH3			R.Knee			R.SH1			R.SH2			R.SH3			R.SH4			R.Ankle			R.RFoot			R.Heel			R.MT5			R.MT1			L.TH1			L.TH2			L.TH3			L.TH4			L.Knee			L.SH1			L.SH2			L.SH3			L.Ankle			L.RFoot			L.Heel			L.MT5			L.MT1			T.Top			T.Lat			T.Bot		
		X1	Y1	Z1	X2	Y2	Z2	X3	Y3	Z3	X4	Y4	Z4	X5	Y5	Z5	X6	Y6	Z6	X7	Y7	Z7	X8	Y8	Z8	X9	Y9	Z9	X10	Y10	Z10	X11	Y11	Z11	X12	Y12	Z12	X13	Y13	Z13	X14	Y14	Z14	X15	Y15	Z15	X16	Y16	Z16	X17	Y17	Z17	X18	Y18	Z18	X19	Y19	Z19	X20	Y20	Z20	X21	Y21	Z21	X22	Y22	Z22	X23	Y23	Z23	X24	Y24	Z24	X25	Y25	Z25	X26	Y26	Z26	X27	Y27	Z27	X28	Y28	Z28	X29	Y29	Z29	X30	Y30	Z30	X31	Y31	Z31	X32	Y32	Z32	X33	Y33	Z33	X34	Y34	Z34
2222	22.21	1081.2207	979.9277	-419.4004	873.8403	1025.8032	-458.6581	860.6451	1017.8523	-508.9633	869.0067	1023.3092	-560.7538	1067.8707	980.6797	-655.6497	995.0762	707.0778	-368.2137	914.637	722.2359	-361.1374	893.7687	616.5523	-378.6063	872.5922	486.1447	-399.1797	866.4617	393.3943	-395.5371	826.6188	287.052	-395.9243	786.0983	424.7156	-395.8714	747.2063	318.5725	-388.0628	721.2465	98.749	-435.3917	740.1765	42.0319	-428.7289	661.9537	86.0087	-485.3575	824.5425	15.0437	-408.5976	863.6851	21.6518	-501.5801	1122.8336	726.4848	-682.3414	1146.1472	619.917	-682.5945	1050.1537	705.8925	-719.0084	1075.2711	598.59	-710.9226	1118.4835	485.2638	-692.1516	1166.1703	373.854	-701.0408	1086.8541	353.3071	-704.8347	1116.2228	247.2585	-696.6121	1198.2417	75.2607	-678.6683	1249.7827	36.6846	-688.9304	1163.0664	33.2229	-626.2173	1329.0647	56.8279	-707.7278	1362.828	82.4437	-629.339	714.9368	395.0921	-431.9936	702.5825	402.5751	-466.9868	712.0736	363.4868	-453.4929
2223	22.22	1081.2094	978.737	-419.5013	873.9924	1024.1101	-460.0717	861.1036	1015.9268	-510.554	869.7748	1021.3763	-562.1053	1068.9666	979.1852	-656.0087	992.9863	706.1645	-368.1188	911.1663	723.8114	-360.7535	890.9971	616.5209	-378.933	869.2248	485.9903	-399.6335	861.1053	393.4732	-395.5141	819.2085	288.7207	-394.8671	781.6348	426.0951	-396.019	740.949	320.9146	-388.2119	710.7716	101.3015	-434.567	728.8314	43.7177	-428.5809	651.3212	89.5857	-485.0382	812.3433	15.0155	-408.9756	851.5402	21.5322	-501.5573	1121.5916	722.9718	-682.5254	1144.4128	616.5827	-682.8362	1049.255	703.3576	-720.2517	1073.6198	595.9788	-712.1137	1116.8874	482.927	-691.6932	1167.978	373.5395	-700.2744	1089.606	349.6631	-704.2486	1123.3186	245.2295	-695.2611	1212.4669	76.3457	-676.5675	1265.9738	39.3745	-685.8953	1179.1829	33.3724	-623.7101	1344.3613	61.9902	-704.2555	1376.8242	90.7741	-625.826	710.1163	397.7192	-432.2894	697.9517	405.3076	-467.2838	706.562	366.1003	-453.7808
2224	22.23	1081.4884	977.4744	-419.9234	874.0089	1022.1936	-462.0008	861.354	1014.1421	-512.2903	870.4541	1019.4987	-564.0793	1070.1325	977.5415	-656.4462	991.3935	705.6327	-368.1739	909.9858	723.2269	-361.3707	889.1324	616.2763	-379.4885	866.3636	485.641	-399.6834	856.568	393.1373	-395.3845	811.6503	291.1569	-392.6368	777.7481	427.4369	-395.9776	734.9741	322.8833	-388.1758	700.7953	103.8988	-434.4559	717.5696	45.5981	-428.3419	641.0123	93.4692	-484.4648	799.7011	14.6703	-408.8634	839.527	21.7846	-501.5015	1121.4872	720.8354	-682.3647	1143.9515	614.6132	-681.9825	1050.1295	701.4832	-721.4595	1073.855	594.1318	-713.1046	1116.3092	480.7996	-691.3442	1169.6561	372.8426	-699.4704	1091.9887	347.0086	-703.3956	1128.3336	243.4494	-693.777	1222.7723	77.1879	-673.9073	1277.9318	41.0948	-682.4829	1190.1589	33.7891	-621.0107	1355.8796	65.5508	-700.7496	1386.8527	96.397	-622.5394	705.9548	400.217	-432.2693	693.8925	407.9823	-467.3923	701.6576	368.8047	-453.7065
2225	22.24	1081.5259	976.4081	-419.7375	874.5819	1020.7348	-463.8154	862.2669	1012.192	-514.1753	871.2527	1017.5798	-565.9288	1071.5062	976.2223	-657.081	990.3164	704.5304	-368.714	908.8899	722.7987	-361.8612	887.762	615.6792	-379.9149	864.0774	485.0827	-399.957	852.886	392.9731	-395.3297	807.2103	289.4288	-395.1136	774.8594	428.7566	-395.6997	729.9468	325.1749	-387.8089	690.444	106.9408	-433.576	706.4713	47.518	-427.8427	630.8554	97.729	-483.5395	787.8051	14.7242	-408.8896	827.5667	21.7783	-501.3608	1122.4488	719.6104	-682.2902	1145.2631	613.6225	-681.1039	1051.797	699.9484	-722.5754	1075.6494	592.6702	-713.5975	1117.1703	479.2215	-691.007	1171.3373	371.8089	-698.7343	1093.8616	344.525	-701.9163	1132.0188	241.8637	-691.9846	1229.0952	76.7238	-671.3845	1284.8585	41.2315	-679.4896	1197.0245	32.6067	-617.8235	1362.7139	66.6309	-697.5168	1392.7327	98.9008	-619.2812	702.1233	402.922	-432.121	690.3453	410.7443	-467.3739	697.4015	371.438	-453.3116
2226	22.25	1082.1794	974.8946	-420.5172	875.0698	1018.7103	-465.9286	862.9584	1010.2563	-516.1909	872.1883	1015.8397	-567.7717	1072.7863	974.7347	-657.7437	989.7483	703.4465	-369.2624	908.4073	722.1611	-362.4262	886.8822	614.9021	-380.317	862.3799	484.6631	-400.1308	849.7491	392.6023	-395.598	801.6096	289.854	-394.6141	772.3279	429.81	-395.6018	725.2796	326.9483	-387.1631	681.2745	109.5969	-432.5829	695.7374	49.6152	-427.237	620.9923	102.1995	-482.3514	775.9645	14.8633	-408.7752	815.1502	21.6986	-501.5853	1124.7666	719.1919	-681.9611	1147.9044	613.1237	-680.054	1054.4821	698.7974	-723.2509	1079.0154	591.8823	-713.3656	1119.1333	477.939	-690.4713	1173.1682	370.1453	-697.5557	1095.8367	343.157	-700.4967	1133.8303	240.2394	-690.1417	1231.1865	75.379	-668.4806	1287.2052	39.5983	-676.4526	1199.0221	31.4216	-615.0058	1365.057	64.9681	-694.0169	1394.6589	97.8636	-615.8637	699.1658	405.6603	-431.635	687.3318	413.662	-466.8578	693.7192	374.2804	-452.8128
2227	22.26	1082.9673	973.3577	-421.524	876.1876	1016.8029	-467.9583	863.8214	1008.5394	-518.1401	873.6262	1013.8781	-569.8709	1074.2472	973.4385	-658.7657	989.6474	702.4868	-369.8861	908.3864	721.3793	-363.1206	886.679	614.0963	-380.7039	861.4684	483.8655	-399.9995	846.8438	391.9607	-394.8796	797.1069	290.3355	-394.4731	770.5308	430.9218	-395.1393	721.0284	329.2067	-386.4817	671.6737	112.9298	-431.3372	684.8644	52.138	-426.1919	611.2502	107.1063	-480.9264	764.0829	15.321	-408.7068	803.2803	21.8637	-501.415	1128.2378	719.5029	-681.4467	1151.6737	613.366	-678.7175	1058.3564	698.0945	-723.3061	1083.1654	591.5261	-712.5365	1122.6235	477.1722	-689.5756	1175.8246	368.2181	-696.0814	1098.2387	342.1441	-699.3849	1134.9573	238.8617	-688.4409	1229.4712	72.9487	-666.2631	1285.1802	36.5445	-673.641	1196.5332	29.3606	-613.013	1363.3484	60.8086	-690.8126	1392.7849	93.2969	-612.341	697.0489	408.25	-430.9892	685.3035	416.5058	-466.2064	690.3421	377.1268	-452.0507
2228	22.27	1083.9994	971.8323	-422.716	877.0941	1015.2449	-469.7759	865.1072	1006.6284	-520.123	875.0164	1012.2452	-571.8009	1076.0802	972.2704	-659.8747	990.1959	701.3007	-370.8935	909.0266	720.378	-363.9335	887.0345	613.3602	-381.0125	861.4757	482.8747	-400.0491	844.5721	391.4009	-394.5913	791.9121	290.9663	-393.4849	769.4013	431.9214	-394.5667	717.603	331.4203	-385.8178	662.6558	116.468	-430.0043	674.0608	54.8256	-425.2901	602.2852	112.277	-479.4462	752.1893	15.78	-408.561	791.3194	21.89	-501.13	1132.4731	719.8121	-680.8803	1156.0608	613.6202	-677.2816	1063.0828	697.432	-723.2767	1088.1737	591.1544	-711.4239	1127.2382	476.4126	-688.6774	1178.6799	365.9811	-694.3926	1100.5681	341.7195	-698.4959	1134.6892	237.6876	-687.3202	1225.033	69.4984	-664.4221	1279.5587	31.9495	-670.9539	1190.3303	26.4423	-611.3367	1358.5149	54.8497	-687.2352	1387.6354	86.4587	-608.141	695.2314	411.0973	-430.3162	683.6675	419.4587	-465.5573	687.9388	379.9365	-451.2771
